:FULLY-SPECIFIED
:FORCE-ALL-JOINTS-BE-3DOF
:DEGREES
408
root 4.28498 16.1075 -10.6767 1.70051 -41.7022 -2.02635
lfemur -30.4538 10.2241 -9.93508
ltibia 52.5717 -0 0
lfoot -14.0297 10.6955 -0.043473
ltoes 6.01338 -0 0
rfemur -44.571 -23.8123 28.1392
rtibia 82.4048 -0 0
rfoot -0.328093 1.48895 0.0915378
rtoes 30.9807 -0 0
lowerback 6.21024 4.61106 -0.198231
upperback 1.88278 6.04903 -1.95779
thorax -1.36622 3.01518 -2.33666
lowerneck -6.5502 3.47937 7.50508
upperneck 3.59455 4.00649 -0.827111
head 2.43203 2.08691 -1.45334
lclavicle -1.99914e-14 1.22413e-14 -8.88992e-32
lhumerus -44.9804 -15.8562 93.5154
lradius 51.0427 -0 0
lwrist 18.9118 0 0
lhand -23.1945 0.914163 -0.24635
lfingers 7.12502 -0 0
lthumb 3.26558 31.0947 -0.149186
rclavicle -1.99914e-14 1.22413e-14 -8.88992e-32
rhumerus -46.4155 8.94915 -93.0426
rradius 64.5402 -0 0
rwrist 8.75204 0 0
rhand -17.9008 -16.4608 -0.216795
rfingers 7.12502 -0 0
rthumb 8.36539 -46.3099 -0.199069
409
root 4.31909 16.1136 -10.7197 1.30488 -41.2642 -1.58682
lfemur -29.518 9.83222 -10.0924
ltibia 51.1025 -0 0
lfoot -14.2648 11.5793 -0.0329444
ltoes 5.00429 -0 0
rfemur -45.3926 -24.321 27.4544
rtibia 83.7692 -0 0
rfoot 0.854415 1.11039 0.0547398
rtoes 31.8131 -0 0
lowerback 6.2383 4.66749 -0.416315
upperback 1.87596 6.11035 -2.10636
thorax -1.38278 3.04494 -2.37399
lowerneck -6.41797 3.39271 7.64608
upperneck 3.64233 3.89366 -0.844518
head 2.43722 2.03106 -1.47472
lclavicle -1.99824e-14 1.39469e-14 -6.03187e-32
lhumerus -45.131 -16.3006 93.7289
lradius 50.882 -0 0
lwrist 18.701 0 0
lhand -22.5541 1.0323 -0.169259
lfingers 7.12502 -0 0
lthumb 3.88093 31.1316 -0.102982
rclavicle -1.99824e-14 1.39469e-14 -6.03187e-32
rhumerus -46.1129 9.16529 -92.3585
rradius 64.9331 -0 0
rwrist 8.52176 0 0
rhand -18.8025 -16.5208 -0.148017
rfingers 7.12502 -0 0
rthumb 7.49521 -46.3887 -0.135629
410
root 4.36266 16.1221 -10.7834 0.914462 -40.7176 -1.13988
lfemur -28.5399 9.44957 -10.2669
ltibia 49.5872 -0 0
lfoot -14.5108 12.4902 -0.0185976
ltoes 3.94048 -0 0
rfemur -46.2261 -24.8297 26.7228
rtibia 85.1322 -0 0
rfoot 2.07408 0.699857 0.0237702
rtoes 32.6712 -0 0
lowerback 6.26582 4.71848 -0.643332
upperback 1.87109 6.16394 -2.25757
thorax -1.39704 3.07086 -2.40865
lowerneck -6.28075 3.28562 7.78339
upperneck 3.6819 3.7546 -0.854875
head 2.43925 1.96212 -1.49304
lclavicle -1.99778e-14 1.56975e-14 -3.06199e-32
lhumerus -45.2851 -16.7963 93.9687
lradius 50.7281 -0 0
lwrist 18.4803 0 0
lhand -21.856 1.16843 -0.0870193
lfingers 7.12502 -0 0
lthumb 4.55158 31.179 -0.0532028
rclavicle -1.99778e-14 1.56975e-14 -3.06199e-32
rhumerus -45.7594 9.4 -91.6213
rradius 65.354 -0 0
rwrist 8.27042 0 0
rhand -19.7506 -16.5992 -0.0756039
rfingers 7.12502 -0 0
rthumb 6.58025 -46.4858 -0.0691219
411
root 4.41606 16.1333 -10.8688 0.532276 -40.0589 -0.687973
lfemur -27.5188 9.07735 -10.4588
ltibia 48.0255 0 0
lfoot -14.768 13.4286 0
ltoes 2.82089 0 0
rfemur -47.0705 -25.3387 25.9429
rtibia 86.4927 0 0
rfoot 3.33111 0.256629 0
rtoes 33.5552 0 0
lowerback 6.29278 4.76377 -0.879405
upperback 1.86828 6.20945 -2.41136
thorax -1.40892 3.09276 -2.4405
lowerneck -6.13857 3.15743 7.91665
upperneck 3.71289 3.58844 -0.857897
head 2.43799 1.87968 -1.50816
lclavicle -1.99779e-14 1.74931e-14 0
lhumerus -45.4433 -17.3447 94.236
lradius 50.5812 0 0
lwrist 18.2497 0 0
lhand -21.0987 1.32331 0
lfingers 7.12502 0 0
lthumb 5.27901 31.2376 0
rclavicle -1.99779e-14 1.74931e-14 0
rhumerus -45.3529 9.65244 -90.8291
rradius 65.8035 0 0
rwrist 7.99748 0 0
rhand -20.7459 -16.6968 0
rfingers 7.12502 0 0
rthumb 5.61965 -766.602 0
